<svg xmlns="http://www.w3.org/2000/svg" viewBox="0 0 512 512">
  <defs>
    <linearGradient id="bg" x1="0%" y1="0%" x2="100%" y2="100%">
      <stop offset="0%" style="stop-color:#1a2818"/>
      <stop offset="100%" style="stop-color:#0d1a0d"/>
    </linearGradient>
    <linearGradient id="leaf" x1="0%" y1="0%" x2="100%" y2="100%">
      <stop offset="0%" style="stop-color:#6B8E4E"/>
      <stop offset="100%" style="stop-color:#4A7C59"/>
    </linearGradient>
  </defs>
  <rect width="512" height="512" rx="96" fill="url(#bg)"/>
  <g transform="translate(128, 100)">
    <!-- Leaf/Hope symbol -->
    <path d="M128 0C64 0 16 64 16 128c0 96 112 160 112 180 0-20 112-84 112-180C240 64 192 0 128 0z" fill="url(#leaf)"/>
    <circle cx="128" cy="120" r="40" fill="rgba(255,255,255,0.9)"/>
    <!-- Second leaf (hope) -->
    <path d="M128 220c-24 0-48 20-48 60s48 80 48 100c0-20 48-60 48-100s-24-60-48-60z" fill="url(#leaf)" opacity="0.7"/>
  </g>
</svg>
